<svg xmlns="http://www.w3.org/2000/svg" viewBox="0 0 511 511">
  <defs>
    <style>
      .a {
        fill: #588157;
      }

      .b {
        fill: #dad7cd;
      }
    </style>
  </defs>
  <g>
    <path class="a" d="M461,511H50.45A50,50,0,0,1,.5,461V50a50,50,0,0,1,50-50H461A50,50,0,0,1,511,50V461A50,50,0,0,1,461,511Z"/>
    <path class="b" d="M351.65,93.5l29,53c20-9.39,39.59-12.66,56.94-14l-15-51c-4-8.26-16.1-11.26-26-9Z"/>
    <path class="b" d="M158,93.6l-29,53c-20-9.39-39.59-12.66-56.94-14l15-51c4-8.26,16.1-11.26,26-9Z"/>
    <path class="b" d="M254.93,40.11c-38,16-101.4,97.35-113.75,189.33a224.79,224.79,0,0,0-2,37c3.3,99.95,83.44,171.9,114.93,199,72.79-61,114.92-126.65,117.7-198.33a227.62,227.62,0,0,0-2-37C357.65,143.74,299,59,254.93,40.11Z"/>
    <path class="b" d="M511,154.42s-125.51,12.36-119.88,23c38.95,73.59-31.53,252.92-77.38,283.17,0,0,139.32-5.17,196.26-116.17Z"/>
    <path class="b" d="M0,155.25s125.51,12.36,119.88,23c-38.95,73.59,31.53,252.92,77.38,283.17,0,0-139.32-5.17-196.26-116.17Z"/>
    <polygon class="b" points="510 344.42 510.99 342.9 511 154.42 510 344.42"/>
    <polygon class="b" points="1 345.25 0.5 344.4 0 155.25 1 345.25"/>
  </g>
</svg>
