<svg xmlns="http://www.w3.org/2000/svg" viewBox="0 0 1289.37 987.5">
  <defs>
    <style>
      .a {
        isolation: isolate;
      }

      .b {
        fill: #588157;
      }

      .c {
        fill: #dad7cd;
      }
    </style>
  </defs>
  <g>
    <g class="a">
      <path class="b" d="M24,837.65Q0,822.5,0,791.3q0-16.5,5.7-25.2t16.8-8.7q8.1,0,13.2,4.2a13.36,13.36,0,0,1,5.1,10.8,54.07,54.07,0,0,1-.9,10.5,33.28,33.28,0,0,1-.45,4.2,42.46,42.46,0,0,0-.45,6.3q0,13.5,13.65,20.1t38.25,6.6q25.5,0,39.9-9.15t14.4-25.65a25.38,25.38,0,0,0-6.6-17.55,54.79,54.79,0,0,0-16.5-12.3q-9.9-5-27.9-12.15-23.1-9-37.65-17.1a78.09,78.09,0,0,1-24.9-22.05Q21.3,690.2,21.3,669.5q0-21.6,11.55-38.4T66.15,605q21.75-9.3,51.15-9.3a120.2,120.2,0,0,1,40.2,6.45q18.3,6.45,29.25,19.65t10.95,32.4q0,18.9-5.7,28.5t-16.8,9.6a18.61,18.61,0,0,1-13-4.8,15,15,0,0,1-5.25-11.4,57.07,57.07,0,0,1,.9-10.5q.9-9,.9-11.4,0-12.6-12.3-19.2t-30.6-6.6q-25.8,0-39.45,9.45T62.7,664.4a28.69,28.69,0,0,0,7,19.5A58.26,58.26,0,0,0,87.3,697.4q10.5,5.4,29.4,12.9a378.32,378.32,0,0,1,36.6,16.8,72.92,72.92,0,0,1,23.55,20.4q9.75,12.9,9.75,31.8,0,35.4-26.85,54.45t-71.85,19Q48,852.8,24,837.65Z"/>
      <path class="b" d="M220.65,839.45Q212.1,827,212.1,808.4a262,262,0,0,1,3-41.25A256.64,256.64,0,0,1,225,727.4q3-9,8.4-12.9t17.1-3.9c4.39,0,7.45.7,9.15,2.1s2.55,3.5,2.55,6.3q0,2.4-3.3,16.2-3,11.1-4.8,20.1-6,31.5-6,42c0,4.2.49,7.15,1.5,8.85a5.14,5.14,0,0,0,4.8,2.55q4.5,0,11.25-9t14.4-27.3q7.65-18.3,14.85-45,2.4-9,7.35-12.9t14.85-3.9q6.9,0,9.6,1.65t2.7,6.15q0,7.5-7.5,41.1-8.4,38.4-8.4,47.4c0,3.8.79,6.75,2.4,8.85a7.55,7.55,0,0,0,6.3,3.15q6,0,14.25-7.35T358.5,787.7q3.6-4.2,8.1-4.2a6.94,6.94,0,0,1,6.15,3.6Q375,790.7,375,797q0,12-5.7,18.6a132.77,132.77,0,0,1-27.75,26.1,58.2,58.2,0,0,1-33.75,10.2q-14.4,0-21.15-11.1t-6.75-31.2Q274.79,830,264.6,841T242.7,851.9Q229.2,851.9,220.65,839.45Z"/>
      <path class="b" d="M355.94,839.9q-4.65-12-4.65-38.4a244,244,0,0,1,11.11-74.1q2.69-8.7,8.85-12.75t17.25-4q6,0,8.4,1.5t2.39,5.7q0,4.8-4.5,21.6-3,12-4.79,21a209.83,209.83,0,0,0-3,22.2q9.88-25.8,22.19-42t24.15-23.1q11.85-6.9,21.75-6.9,19.5,0,19.5,19.5,0,3.9-2.69,18.9c-1.61,8-2.4,13-2.4,15q0,10.5,7.5,10.5,8.38,0,21.59-13.2,3.9-3.9,8.1-3.9a7,7,0,0,1,6.15,3.45,16.53,16.53,0,0,1,2.25,9.15q0,11.1-6,17.4a81.28,81.28,0,0,1-19.65,14.85,49,49,0,0,1-23.85,6.15q-15.9,0-24.15-8.1t-8.25-21.9a46.56,46.56,0,0,1,.9-9q.6-6,.6-8.1,0-4.8-3.29-4.8-4.5,0-11.86,10T405,793.1a214.54,214.54,0,0,0-11.71,34.8Q390,842,385.65,847T372,851.9Q360.59,851.9,355.94,839.9Z"/>
      <path class="b" d="M653.54,787.1q2.25,3.6,2.25,9.9,0,12-5.7,18.6a132.77,132.77,0,0,1-27.75,26.1,58.2,58.2,0,0,1-33.75,10.2q-15.9,0-25.8-11.4-17.1,11.1-35.7,11.4-3.9,57.9-17.7,96.75t-40.5,38.85q-16.2,0-24-11.7t-7.8-32.4q0-29.4,13.5-68.55t41.7-86.25q0-43.8-.6-60.9a15.35,15.35,0,0,1,6.9-13.8q7.2-5.1,18-5.1,6.3,0,9.15,2.55t3.15,10q0,7.5.3,11.1,9.6-12,18.9-17.25a39.65,39.65,0,0,1,19.8-5.25q16.8,0,27.45,13.5T606,758.9a95.35,95.35,0,0,1-5.1,30.9,100.93,100.93,0,0,1-14.1,27.3,39.67,39.67,0,0,0,10.5,1.8q9.9,0,18.9-7.2t23.1-24q3.6-4.2,8.1-4.2A6.93,6.93,0,0,1,653.54,787.1ZM484.79,922.85q5.4-35.25,6.9-87.75a442.3,442.3,0,0,0-20.4,57.3q-7.5,27.3-7.5,45.9,0,9.6,2.25,14.7t5.25,5.1Q479.39,958.1,484.79,922.85Zm63.75-111.6a68.89,68.89,0,0,0,14.55-23.4,80.32,80.32,0,0,0,5.4-29.25q0-9-3.6-13.65a11.53,11.53,0,0,0-9.6-4.65q-10.8,0-26.1,22.8-.3,13.2-.3,38.7,0,13.8-.3,21.3Q539.39,820.7,548.54,811.25Z"/>
      <path class="b" d="M751.34,787.1q2.25,3.6,2.25,9.9,0,12-5.7,18.6a129.48,129.48,0,0,1-28,26.1,60.11,60.11,0,0,1-34.35,10.2q-26.4,0-39.15-24t-12.75-62.1q0-36.6,9.45-83.4t27.9-80.4q18.45-33.6,43.95-33.6,14.4,0,22.65,13.35T745.79,620q0,35.7-19.8,82.8t-53.7,93.3q2.09,12.3,6.9,17.55a16.24,16.24,0,0,0,12.6,5.25,34.77,34.77,0,0,0,21.6-7q9.29-7.05,23.7-24.15,3.6-4.2,8.1-4.2A6.94,6.94,0,0,1,751.34,787.1ZM692.69,623q-8.72,24.9-15.3,61.8a447.37,447.37,0,0,0-7.2,70.8,386.62,386.62,0,0,0,33.9-70.35q12.6-35.25,12.6-64.35,0-22.8-8.4-22.8Q701.38,598.1,692.69,623Z"/>
      <path class="b" d="M736.48,838.4q-11.1-13.5-11.1-35.4a97.53,97.53,0,0,1,11.1-45.45A94.75,94.75,0,0,1,766,723.05q18.45-13,39.15-13,6.6,0,8.85,2.55t3.75,9.15a70.44,70.44,0,0,1,13.2-1.2q14.7,0,14.7,10.5,0,6.3-4.5,30-6.9,34.5-6.9,48a10.89,10.89,0,0,0,2.25,7.2,7.26,7.26,0,0,0,5.85,2.7q5.7,0,13.8-7.35t21.9-23.85q3.6-4.2,8.1-4.2a6.93,6.93,0,0,1,6.15,3.6q2.25,3.6,2.25,9.9,0,12-5.7,18.6a151.13,151.13,0,0,1-26.1,25.8q-13.8,10.5-26.7,10.5a28,28,0,0,1-18.15-6.75q-8.25-6.75-12.45-18.45-15.6,25.2-39.3,25.2Q747.58,851.9,736.48,838.4Zm53.1-24.6q6-7.8,8.7-20.7l11.1-55.2q-12.6.3-23.25,9.45t-17,24.15a81.28,81.28,0,0,0-6.3,31.8q0,9.3,3.75,13.8T777,821.6Q783.58,821.6,789.58,813.8Z"/>
      <path class="b" d="M875.53,839.9q-4.65-12-4.65-38.4A244.31,244.31,0,0,1,882,727.4q2.7-8.7,8.85-12.75t17.25-4q6,0,8.4,1.5t2.4,5.7q0,4.8-4.5,21.6-3,12-4.8,21a215.21,215.21,0,0,0-3,22.2q9.9-25.8,22.2-42t24.15-23.1q11.85-6.9,21.75-6.9,19.5,0,19.5,19.5,0,11.7-6.6,42.3-5.7,26.1-5.7,34.5,0,12,8.7,12,6,0,14.25-7.35t22.05-23.85q3.6-4.2,8.1-4.2a6.93,6.93,0,0,1,6.15,3.6q2.25,3.6,2.25,9.9,0,12-5.7,18.6a132.77,132.77,0,0,1-27.75,26.1,58.2,58.2,0,0,1-33.75,10.2q-15.3,0-23.1-8.85t-7.8-25.65q0-8.4,4.2-30,3.9-18.9,3.9-26.1,0-4.8-3.3-4.8-3.9,0-11,10t-14.4,26.55a206.52,206.52,0,0,0-11.85,34.8q-3.3,14.1-7.65,19.05t-13.65,4.95Q880.18,851.9,875.53,839.9Z"/>
      <path class="b" d="M1159,787.1q2.25,3.6,2.25,9.9,0,12-5.7,18.6a127.84,127.84,0,0,1-28.2,26.1q-15.3,10.2-35.1,10.2-61.2,0-61.2-86.1,0-13.2.9-26.7h-11.7q-9,0-12.15-3.3T1005,725.3q0-16.8,13.5-16.8h17.1a290.69,290.69,0,0,1,15.6-60.3q10.48-27.3,25.35-43.5t32-16.2q12.6,0,19.8,11.1t7.2,27.9q0,46.5-39,81h33.6q4.79,0,6.9,2.1c1.39,1.4,2.1,4,2.1,7.8q0,20.7-33.9,20.7h-36.6q-.61,15-.6,23.4,0,31.2,7.35,43.8t23.25,12.6a35.83,35.83,0,0,0,22.8-7.8q9.9-7.8,23.4-23.4,3.6-4.2,8.1-4.2A6.94,6.94,0,0,1,1159,787.1Zm-68.7-158.55q-5.57,11.25-10.5,31.2a415.7,415.7,0,0,0-8.25,44.25q17.68-15.3,26.55-34.35T1107,635q0-17.7-6.6-17.7Q1095.88,617.3,1090.33,628.55Z"/>
      <path class="b" d="M1168.92,851.3q-8.25-7.2-8.25-16.2a18.45,18.45,0,0,1,5.7-13.5q5.7-5.7,16.8-5.7a65.83,65.83,0,0,1,9.15.75q5.25.75,8,1.05a38.62,38.62,0,0,0-3.45-14.7,73.44,73.44,0,0,0-8-13.35q-4.8-6.45-9-11.25a196,196,0,0,1-18.45,29.4,219.74,219.74,0,0,1-20,22.2q-5.4,5.4-11.4,5.4a9.85,9.85,0,0,1-7.8-3.45,12.62,12.62,0,0,1-3-8.55,17.1,17.1,0,0,1,4.2-11.1l3.9-4.8q16.5-20.4,24.9-33.6,5.1-8.7,12-23.25t13.5-30.15q5.7-13.2,23.7-13.2,8.4,0,11.7,1.5a5,5,0,0,1,3.3,4.8,22.08,22.08,0,0,1-1.2,5.7,43.35,43.35,0,0,1-3.3,7.8q-5.4,10.8-5.4,18.3a20,20,0,0,0,3.15,9.9,112.36,112.36,0,0,0,9.75,13.5A190.59,190.59,0,0,1,1234,790.25a39,39,0,0,1,5,19.35,81.27,81.27,0,0,1-.6,8.4q14.7-5.7,34.5-30.3,3.6-4.2,8.1-4.2a6.93,6.93,0,0,1,6.15,3.6q2.25,3.6,2.25,9.9,0,11.4-5.7,18.6-15,18.6-28.65,25.35t-33.75,7.35a42.58,42.58,0,0,1-28.5,10.2Q1177.17,858.5,1168.92,851.3Z"/>
    </g>
    <path class="b" d="M873,511H462.44a50,50,0,0,1-49.95-50V50A50,50,0,0,1,462.44,0H873a50,50,0,0,1,50,50V461A50,50,0,0,1,873,511Z"/>
    <g>
      <path class="c" d="M763.64,93.5l29,53c20-9.39,39.59-12.66,56.94-14l-15-51c-4-8.26-16.09-11.26-26-9Z"/>
      <path class="c" d="M570,93.6l-29,53c-20-9.39-39.59-12.66-56.94-14l15-51c4-8.26,16.1-11.26,26-9Z"/>
      <path class="c" d="M923,154.42s-125.51,12.36-119.88,23c38.95,73.59-31.53,252.92-77.38,283.17,0,0,139.32-5.17,196.26-116.17Z"/>
      <path class="c" d="M412,155.25s125.52,12.36,119.88,23c-38.95,73.59,31.53,252.92,77.38,283.17,0,0-139.32-5.17-196.26-116.17Z"/>
      <polygon class="c" points="921.99 344.42 922.98 342.9 922.99 154.42 921.99 344.42"/>
      <polygon class="c" points="412.99 345.25 412.49 344.4 411.99 155.25 412.99 345.25"/>
      <path class="c" d="M667.69,40.11c-38,16-101.4,97.35-113.74,189.33a224.79,224.79,0,0,0-2,37c3.3,99.95,83.44,171.9,114.93,199,72.79-61,114.92-126.65,117.7-198.33a228.75,228.75,0,0,0-2-37C770.42,143.74,711.79,59,667.69,40.11Z"/>
    </g>
  </g>
</svg>
