<svg xmlns="http://www.w3.org/2000/svg" viewBox="0 0 1110.89 1083.44">
  <g>
    <path d="M798.36,0A311.77,311.77,0,0,0,485.83,312.53c0,119.91,67.59,223.89,166.68,276.31V951.75a74.67,74.67,0,0,0,28.33,58.52l75.44,59.66a62.64,62.64,0,0,0,81.43-3.18l136-126.15a31.88,31.88,0,0,0,7.33-36.54l-36.87-81.27v-2l50.09-62.14A53.47,53.47,0,0,0,996.17,694l-52-72.76v-32.4c99.09-52.42,166.68-156.4,166.68-276.31A311.77,311.77,0,0,0,798.36,0Zm0,83.34c126.37,0,229.19,102.82,229.19,229.19A228.75,228.75,0,0,1,905.26,515.15l-44.39,23.48v109.3L915.19,724l-54.32,67.39v49.44l29,63.93-95.79,88.8L741.59,952a15.07,15.07,0,0,1-5.74-11.8V538.63l-44.39-23.44A228.84,228.84,0,0,1,569.17,312.53C569.17,186.16,672,83.34,798.36,83.34Zm0,83.34A83.35,83.35,0,1,0,881.7,250,83.34,83.34,0,0,0,798.36,166.68Z"/>
    <path d="M661,985.55l-520.13,2.09a47,47,0,0,1-47-47V565a47,47,0,0,1,47-47l422.13.48c-9-12-35.23-59.67-56-94l-319.17-.39V306.77c0-116.5,94.78-211.31,211.3-211.31,59.82,0,97.39,9,135.87,49.09,18.5-25.28,36.7-51.37,62-70-55.51-57.21-112-73-197.87-73C230.84,1.55,93.91,138.48,93.91,306.77V432.32A140.8,140.8,0,0,0,0,565V940.68a140.86,140.86,0,0,0,140.87,140.87H657.39c41.7,0,54.82,2.79,80.61-26"/>
  </g>
</svg>
