<svg xmlns="http://www.w3.org/2000/svg" viewBox="0 0 1080 923.86">
  <path d="M377.35,598.55H937.16c12.72,0,25.73,26,25.73,39,0,26-13,52-26,52h-576c-61.55,0-100.59-39-100.59-91.09L195.18,78.07H39q-39,0-39-39T39,0H234.22c13,0,25.81,17.25,26,39l13,65.06H1054c13,0,26,13,26,39l-52,299.28c-13,65.06-39,91.08-91.08,91.08H325.3C325.3,572.53,351.33,598.55,377.35,598.55ZM409.88,754.7a84.58,84.58,0,1,0,84.58,84.58A84.58,84.58,0,0,0,409.88,754.7Zm429.4,0a84.58,84.58,0,1,0,84.58,84.58A84.58,84.58,0,0,0,839.28,754.7Z"/>
</svg>
