<svg xmlns="http://www.w3.org/2000/svg" viewBox="0 0 976.79 966.05"><defs><style>.fa280f3f-a05a-4d37-8e82-ca4fd49fa533{isolation:isolate;font-size:300px;font-family:Junegull-Regular, Junegull;}.aa89f37e-675a-4978-b17e-9eaed68d4b40,.fa280f3f-a05a-4d37-8e82-ca4fd49fa533{fill:#588157;}.aa0eb33e-cfda-42ee-9f41-a9ef17c3bfcd{fill:#dad7cd;}</style></defs><g id="ed5f3f47-46a6-46a3-8218-13de263e9e5d" data-name="Слой 2"><g id="fcaae5ef-d215-4e81-a214-e08fe859c1de" data-name="Название"><text class="fa280f3f-a05a-4d37-8e82-ca4fd49fa533" transform="translate(0 895.85)">ЛиЭко</text></g><g id="a3744a4a-659e-496d-aec4-41906a51b9f2" data-name="Слой 4"><path class="aa89f37e-675a-4978-b17e-9eaed68d4b40" d="M703.9,511h-411a50,50,0,0,1-50-50V50a50,50,0,0,1,50-50h411a50,50,0,0,1,50,50V461A50,50,0,0,1,703.9,511Z"/></g><g id="b7d74e08-c34d-4bf8-9f35-1b1d189cb9dd" data-name="Белый Лепесток"><path class="aa0eb33e-cfda-42ee-9f41-a9ef17c3bfcd" d="M594.4,93.5l29,53c20.06-9.39,39.63-12.66,57-14l-15-51c-4-8.26-16.11-11.26-26-9Z"/><path class="aa0eb33e-cfda-42ee-9f41-a9ef17c3bfcd" d="M400.52,93.6l-29,53c-20.06-9.39-39.63-12.66-57-14l15-51c4-8.26,16.1-11.26,26-9Z"/><path class="aa0eb33e-cfda-42ee-9f41-a9ef17c3bfcd" d="M499.4,39.5c-38,16-102.64,98-115,190a224.79,224.79,0,0,0-2,37c3.3,99.95,75.48,171.9,107,199Z"/><path class="aa0eb33e-cfda-42ee-9f41-a9ef17c3bfcd" d="M498.39,40.17c38,16,102.64,98,115,190a226,226,0,0,1,2,37c-3.29,99.95-76.47,171.23-108,198.33Z"/><path class="aa0eb33e-cfda-42ee-9f41-a9ef17c3bfcd" d="M489.4,465.5c6.4,4.45,12.46,4.11,18,0l-9-425.33Z"/><path class="aa0eb33e-cfda-42ee-9f41-a9ef17c3bfcd" d="M753.91,154.42s-125.64,12.36-120,23c39,73.59-31.56,252.92-77.46,283.17,0,0,139.46-5.17,196.46-116.17Z"/><path class="aa0eb33e-cfda-42ee-9f41-a9ef17c3bfcd" d="M242.4,155.25s125.64,12.36,120,23c-39,73.59,31.56,252.92,77.46,283.17,0,0-139.46-5.17-196.46-116.17Z"/><polygon class="aa0eb33e-cfda-42ee-9f41-a9ef17c3bfcd" points="752.9 344.42 753.89 342.9 753.9 154.42 752.9 344.42"/><polygon class="aa0eb33e-cfda-42ee-9f41-a9ef17c3bfcd" points="243.4 345.25 242.9 344.4 242.4 155.25 243.4 345.25"/></g></g></svg>