<svg xmlns="http://www.w3.org/2000/svg" viewBox="0 0 1553.24 511"><defs><style>.b9829bda-0ac0-4903-8399-f9c3e090cf89,.edc153b2-18a2-4b5b-b671-88fd4b46b8e8{fill:#588157;}.ff50773b-7fb8-46af-8297-bcfbc4210618{fill:#dad7cd;}.b9829bda-0ac0-4903-8399-f9c3e090cf89{isolation:isolate;font-size:300px;font-family:Junegull-Regular, Junegull;}</style></defs><g id="f0bf19ee-f058-49bf-876e-1415c2d1a8b1" data-name="Слой 2"><g id="b21d200e-9a5e-47a9-86f4-3f15d0731a3b" data-name="Слой 9"><path class="edc153b2-18a2-4b5b-b671-88fd4b46b8e8" d="M461.26,511h-411a50,50,0,0,1-50-50V50a50,50,0,0,1,50-50h411a50,50,0,0,1,50,50V461A50,50,0,0,1,461.26,511Z"/></g><g id="e6e16cf9-9390-430e-9288-954e1cda18e1" data-name="Слой 10"><path class="ff50773b-7fb8-46af-8297-bcfbc4210618" d="M352,94.27l29,53c20.06-9.39,39.63-12.66,57-14l-15-51c-4-8.26-16.11-11.26-26-9Z"/><path class="ff50773b-7fb8-46af-8297-bcfbc4210618" d="M158.12,94.38l-29,53c-20.06-9.39-39.63-12.67-57-14l15-51c4-8.26,16.11-11.26,26-9Z"/><path class="ff50773b-7fb8-46af-8297-bcfbc4210618" d="M257,40.27c-38,16-102.64,98-115,190a224.79,224.79,0,0,0-2,37c3.3,100,75.48,171.91,107,199Z"/><path class="ff50773b-7fb8-46af-8297-bcfbc4210618" d="M256,40.94c38,16,102.64,98,115,190a224.79,224.79,0,0,1,2,37c-3.29,99.95-76.47,171.24-108,198.33Z"/><path class="ff50773b-7fb8-46af-8297-bcfbc4210618" d="M247,466.27c6.41,4.46,12.47,4.11,18,0L256,41Z"/><path class="ff50773b-7fb8-46af-8297-bcfbc4210618" d="M511.51,155.19s-125.64,12.36-120,23c39,73.59-31.56,252.92-77.46,283.17,0,0,139.46-5.17,196.46-116.17Z"/><path class="ff50773b-7fb8-46af-8297-bcfbc4210618" d="M0,156s125.64,12.36,120,23c-39,73.59,31.56,252.92,77.46,283.18C197.46,462.2,58,457,1,346Z"/><polygon class="ff50773b-7fb8-46af-8297-bcfbc4210618" points="510.51 345.19 511.5 343.68 511.51 155.19 510.51 345.19"/><polygon class="ff50773b-7fb8-46af-8297-bcfbc4210618" points="1 346.02 0.5 345.18 0 156.03 1 346.02"/></g><g id="a34e73d8-7180-4ef3-9fef-35f290051875" data-name="Слой 12"><text class="b9829bda-0ac0-4903-8399-f9c3e090cf89" transform="translate(575.23 346.02)">ЛиЭко</text><text class="b9829bda-0ac0-4903-8399-f9c3e090cf89" transform="translate(575.74 346.02)">ЛиЭко</text><text class="b9829bda-0ac0-4903-8399-f9c3e090cf89" transform="translate(576.45 346.13)">ЛиЭко</text></g></g></svg>