<?xml version="1.0" encoding="utf-8"?>
<!-- Generator: Adobe Illustrator 24.3.0, SVG Export Plug-In . SVG Version: 6.00 Build 0)  -->
<svg version="1.1" xmlns="http://www.w3.org/2000/svg" xmlns:xlink="http://www.w3.org/1999/xlink" x="0px" y="0px"
	 viewBox="0 0 1080 1080" style="enable-background:new 0 0 1080 1080;" xml:space="preserve">
<style type="text/css">
	.st0{fill:#DAD7CD;}
	.st1{display:none;}
	.st2{display:inline;fill:#292933;}
	.st3{fill:#A3B18A;}
	.st4{fill:#588157;}
	.st5{fill:#3A5A40;}
	.st6{fill:#344E41;}
	.st7{fill:#292933;}
	.st8{fill:#34353B;}
	.st9{fill:#3D3D47;}
	.st10{fill:#805851;}
	.st11{fill:#7D6A65;}
	.st12{fill:#B79387;}
	.st13{fill:#CBBDB7;}
	.st14{fill:#F0EAD2;}
	.st15{fill:#DDE5B6;}
	.st16{fill:#ADC178;}
	.st17{fill:#A98467;}
	.st18{fill:#6C584C;}
	.st19{font-family:'Junegull-Regular';}
	.st20{font-size:300px;}
	.st21{stroke:#FFFFFF;stroke-miterlimit:10;}
</style>
<g id="Слой_8_1_">
	<rect x="-21" y="-19" class="st0" width="1117" height="1117"/>
</g>
<g id="Слой_5_1_" class="st1">
	<rect x="-21" y="-19" class="st2" width="1117" height="1117"/>
</g>
<g id="Слой_1" class="st1">
	
		<image style="display:inline;overflow:visible;enable-background:new    ;" width="338" height="281" xlink:href="E50A063C.png"  transform="matrix(3.1953 0 0 3.1953 0 91.0651)">
	</image>
	
		<image style="display:inline;overflow:visible;enable-background:new    ;" width="531" height="160" xlink:href="E50A063F.png"  transform="matrix(1 0 0 1 1201 51)">
	</image>
</g>
<g id="Слой_2">
	<g id="Слой_7">
		<rect x="-264" y="429" class="st0" width="220" height="100"/>
		<rect x="-264" y="329" class="st3" width="220" height="100"/>
		<rect x="-264" y="229" class="st4" width="220" height="100"/>
		<rect x="-264" y="129" class="st5" width="220" height="100"/>
		<rect x="-264" y="29" class="st6" width="220" height="100"/>
	</g>
	<rect x="1130.2" y="739.8" class="st7" width="220" height="71.4"/>
	<rect x="1130.2" y="668.4" class="st8" width="220" height="71.4"/>
	<rect x="1130.2" y="596.9" class="st9" width="220" height="71.4"/>
	<rect x="1130.2" y="525.5" class="st10" width="220" height="71.4"/>
	<rect x="1130.2" y="454.1" class="st11" width="220" height="71.4"/>
	<rect x="1130.2" y="382.6" class="st12" width="220" height="71.4"/>
	<rect x="1130.2" y="311.2" class="st13" width="220" height="71.4"/>
	<rect x="-264" y="551" class="st14" width="220" height="100"/>
	<rect x="-264" y="651" class="st15" width="220" height="100"/>
	<rect x="-264" y="751" class="st16" width="220" height="100"/>
	<rect x="-264" y="851" class="st17" width="220" height="100"/>
	<rect x="-264" y="951" class="st18" width="220" height="100"/>
</g>
<g id="Название">
	<text transform="matrix(1 0 0 1 51.6049 988.3513)" class="st4 st19 st20">ЛиЭко</text>
</g>
<g id="Слой_4_1_">
	<path class="st4" d="M755.5,603.5h-411c-27.6,0-50-22.4-50-50v-411c0-27.6,22.4-50,50-50h411c27.6,0,50,22.4,50,50v411
		C805.5,581.1,783.1,603.5,755.5,603.5z"/>
</g>
<g id="Белый_Лепесток">
	<path class="st0" d="M646,186l29,53c20.1-9.4,39.6-12.7,57-14l-15-51c-4-8.3-16.1-11.3-26-9L646,186z"/>
	<path class="st0" d="M452.1,186.1l-29,53c-20.1-9.4-39.6-12.7-57-14l15-51c4-8.3,16.1-11.3,26-9L452.1,186.1z"/>
	<path class="st0" d="M551,132c-38,16-102.6,98-115,190c-2.4,18.1-2.2,31.9-2,37c3.3,100,75.5,171.9,107,199L551,132z"/>
	<path class="st0" d="M550,132.7c38,16,102.6,98,115,190c2.4,18.1,2.2,31.9,2,37c-3.3,100-76.5,171.2-108,198.3L550,132.7z"/>
	<path class="st0" d="M537.5,555.8"/>
	<path class="st0" d="M541,558c6.4,4.5,12.5,4.1,18,0l-9-425.3L541,558z"/>
	<path class="st0" d="M805.5,246.9c0,0-125.6,12.4-120,23c39,73.6-31.6,252.9-77.5,283.2c0,0,139.5-5.2,196.5-116.2L805.5,246.9z"/>
	<path class="st0" d="M294,247.8c0,0,125.6,12.4,120,23c-39,73.6,31.6,252.9,77.5,283.2c0,0-139.5-5.2-196.5-116.2L294,247.8z"/>
	<polygon class="st0" points="804.5,436.9 805.5,435.4 805.5,246.9 	"/>
	<polygon class="st0" points="295,437.8 294.5,436.9 294,247.8 	"/>
</g>
<g id="ПУСТЫШКА">
	<rect x="-743.9" y="-19" class="st21" width="26.6" height="26.6"/>
</g>
<g id="Слой_11">
</g>
<g id="Слой_9">
	<path class="st4" d="M246.8,1890.2h-411c-27.6,0-50-22.4-50-50v-411c0-27.6,22.4-50,50-50h411c27.6,0,50,22.4,50,50v411
		C296.8,1867.8,274.4,1890.2,246.8,1890.2z"/>
</g>
<g id="Слой_10">
	<path class="st0" d="M137.5,1473.5l29,53c20.1-9.4,39.6-12.7,57-14l-15-51c-4-8.3-16.1-11.3-26-9L137.5,1473.5z"/>
	<path class="st0" d="M-56.3,1473.6l-29,53c-20.1-9.4-39.6-12.7-57-14l15-51c4-8.3,16.1-11.3,26-9L-56.3,1473.6z"/>
	<path class="st0" d="M42.5,1419.5c-38,16-102.6,98-115,190c-2.4,18.1-2.2,31.9-2,37c3.3,99.9,75.5,171.9,107,199L42.5,1419.5z"/>
	<path class="st0" d="M41.5,1420.1c38,16,102.6,98,115,190c2.4,18.1,2.2,31.9,2,37c-3.3,100-76.5,171.2-108,198.3L41.5,1420.1z"/>
	<path class="st0" d="M29,1843.3"/>
	<path class="st0" d="M32.5,1845.5c6.4,4.4,12.5,4.1,18,0l-9-425.3L32.5,1845.5z"/>
	<path class="st0" d="M297.1,1534.4c0,0-125.6,12.4-120,23c39,73.6-31.6,252.9-77.5,283.2c0,0,139.5-5.2,196.5-116.2L297.1,1534.4z"
		/>
	<path class="st0" d="M-214.5,1535.2c0,0,125.6,12.4,120,23c-39,73.6,31.6,252.9,77.5,283.2c0,0-139.5-5.2-196.5-116.2
		L-214.5,1535.2z"/>
	<polygon class="st0" points="296.1,1724.4 297,1722.9 297.1,1534.4 	"/>
	<polygon class="st0" points="-213.5,1725.2 -214,1724.4 -214.5,1535.2 	"/>
</g>
<g id="Слой_12">
	<text transform="matrix(1 0 0 1 360.4041 1727.3112)" class="st4 st19 st20">ЛиЭко</text>
</g>
</svg>
